# xmcd CD database file
#
# Track frame offsets:
#	150
#	39664
#	58535
#	75690
#	106202
#	125110
#	148221
#	189540
#	210346
#	247469
#	265736
#
# Disc length: 3753 seconds
#
# Revision: 0
# Processed by: cddbd v1.5.2PL0 Copyright (c) Steve Scherf et al.
# Submitted via: Feurio! 1.68 - http://www.feurio.com
#
DISCID=a60ea70b
DTITLE=Paul Camilleri - Live in Europe [CD 1)
DYEAR=1900
DGENRE=
TTITLE0=??? - ain't got time
TTITLE1=??? - angel face
TTITLE2=??? - you don't know
TTITLE3=??? - gets better
TTITLE4=??? - love me baby
TTITLE5=??? - lady luck
TTITLE6=??? - messin' with my heart
TTITLE7=??? - drum solo
TTITLE8=??? - jealous man
TTITLE9=??? - heart of stone
TTITLE10=??? - mr. pc
EXTD=Songwriter: Paul Camilleri\r\nKomponist: Paul Camilleri\r\nArrangement: 
EXTD=Paul Camilleri and Band\r\n
EXTT0=
EXTT1=
EXTT2=
EXTT3=
EXTT4=
EXTT5=
EXTT6=
EXTT7=
EXTT8=
EXTT9=
EXTT10=
PLAYORDER=
